<svg xmlns="http://www.w3.org/2000/svg" width="512" height="512" viewBox="0 0 512 512">
  <defs>
    <linearGradient id="bg" x1="0" y1="0" x2="1" y2="1">
      <stop offset="0%" stop-color="#1a1512"/>
      <stop offset="60%" stop-color="#2d1a0e"/>
      <stop offset="100%" stop-color="#1a0e06"/>
    </linearGradient>
    <linearGradient id="gold" x1="0" y1="0" x2="0" y2="1">
      <stop offset="0%" stop-color="#d4b06a"/>
      <stop offset="100%" stop-color="#b8963e"/>
    </linearGradient>
    <radialGradient id="glow" cx="75%" cy="30%" r="40%">
      <stop offset="0%" stop-color="#c4622d" stop-opacity="0.4"/>
      <stop offset="100%" stop-color="#1a0e06" stop-opacity="0"/>
    </radialGradient>
  </defs>
  <rect width="512" height="512" rx="112" fill="url(#bg)"/>
  <rect width="512" height="512" rx="112" fill="url(#glow)"/>
  <path d="M0,380 L80,260 L160,310 L240,200 L320,280 L400,220 L460,260 L512,240 L512,420 L0,420Z" fill="#2d1a0e" opacity="0.8"/>
  <path d="M0,420 L100,320 L200,370 L300,290 L400,340 L512,300 L512,512 L0,512Z" fill="#1a0e06" opacity="0.9"/>
  <rect x="60" y="148" width="392" height="1" fill="url(#gold)" opacity="0.6"/>
  <rect x="60" y="362" width="392" height="1" fill="url(#gold)" opacity="0.6"/>
  <text x="256" y="300" font-family="'Hiragino Mincho ProN', 'Yu Mincho', serif" font-size="180" font-weight="400" text-anchor="middle" fill="url(#gold)">和</text>
  <text x="256" y="186" font-family="'Hiragino Mincho ProN', 'Yu Mincho', serif" font-size="36" font-weight="300" text-anchor="middle" fill="rgba(245,240,232,0.7)" letter-spacing="8">風の谷の</text>
  <text x="256" y="368" font-family="'Hiragino Mincho ProN', 'Yu Mincho', serif" font-size="36" font-weight="300" text-anchor="middle" fill="rgba(245,240,232,0.7)" letter-spacing="8">み　屋</text>
  <path d="M60,160 L60,148 L72,148" fill="none" stroke="url(#gold)" stroke-width="1.5" opacity="0.8"/>
  <path d="M452,160 L452,148 L440,148" fill="none" stroke="url(#gold)" stroke-width="1.5" opacity="0.8"/>
  <path d="M60,352 L60,364 L72,364" fill="none" stroke="url(#gold)" stroke-width="1.5" opacity="0.8"/>
  <path d="M452,352 L452,364 L440,364" fill="none" stroke="url(#gold)" stroke-width="1.5" opacity="0.8"/>
</svg>
